<svg width="1440" height="775" viewBox="0 0 1440 775" fill="none" xmlns="http://www.w3.org/2000/svg">
<path d="M1441.66 -41.4288L-1.11593 -49C-1.11593 -49 -45.8057 696.367 -1.11593 791C43.5738 885.633 143.6 689.175 402.6 711.675C904.903 755.311 1299.18 236.001 1464 -41.4288H1441.66Z" fill="url(#paint0_linear_2289_919)" fill-opacity="0.16"/>
<path d="M1441.66 -41.4288L-1.11593 -49C-1.11593 -49 -45.8057 696.367 -1.11593 791C43.5738 885.633 143.6 689.175 402.6 711.675C904.903 755.311 1299.18 236.001 1464 -41.4288H1441.66Z" fill="url(#paint1_linear_2289_919)" fill-opacity="0.2"/>
<path d="M1441.66 -41.4288L-1.11593 -49C-1.11593 -49 -45.8057 696.367 -1.11593 791C43.5738 885.633 143.6 689.175 402.6 711.675C904.903 755.311 1299.18 236.001 1464 -41.4288H1441.66Z" fill="url(#paint2_linear_2289_919)" fill-opacity="0.2"/>
<path d="M1441.66 -41.4288L-1.11593 -49C-1.11593 -49 -45.8057 696.367 -1.11593 791C43.5738 885.633 143.6 689.175 402.6 711.675C904.903 755.311 1299.18 236.001 1464 -41.4288H1441.66Z" fill="url(#paint3_linear_2289_919)" fill-opacity="0.2"/>
<path d="M1441.66 -41.4288L-1.11593 -49C-1.11593 -49 -45.8057 696.367 -1.11593 791C43.5738 885.633 143.6 689.175 402.6 711.675C904.903 755.311 1299.18 236.001 1464 -41.4288H1441.66Z" stroke="black" stroke-opacity="0.98"/>
<defs>
<linearGradient id="paint0_linear_2289_919" x1="-7.20804" y1="-32.7758" x2="842.909" y2="650.726" gradientUnits="userSpaceOnUse">
<stop offset="0.00897083" stop-color="#085FC5"/>
<stop offset="0.965448" stop-color="#0D0D0D" stop-opacity="0"/>
</linearGradient>
<linearGradient id="paint1_linear_2289_919" x1="5.99118" y1="-34.9851" x2="304.222" y2="634.669" gradientUnits="userSpaceOnUse">
<stop/>
<stop offset="1" stop-opacity="0"/>
</linearGradient>
<linearGradient id="paint2_linear_2289_919" x1="-25.9917" y1="-169.204" x2="940.168" y2="404.318" gradientUnits="userSpaceOnUse">
<stop offset="0.0337978"/>
<stop offset="1" stop-opacity="0"/>
</linearGradient>
<linearGradient id="paint3_linear_2289_919" x1="1274.64" y1="-99.6692" x2="1295.23" y2="137.305" gradientUnits="userSpaceOnUse">
<stop/>
<stop offset="1" stop-opacity="0"/>
</linearGradient>
</defs>
</svg>
