<svg width="33" height="33" viewBox="0 0 33 33" fill="none" xmlns="http://www.w3.org/2000/svg">
<path fill-rule="evenodd" clip-rule="evenodd" d="M4.10148 12.0208H1.27065C0.776149 12.0208 0.370337 12.423 0.415128 12.9157C0.596054 14.8994 1.37389 16.7816 2.64607 18.3143C3.91826 19.847 5.62507 20.9582 7.54148 21.5014V23.6666C7.54148 24.8365 8.2895 25.8327 9.33315 26.2018C9.34265 27.9243 10.036 29.5725 11.2608 30.7838C12.4855 31.9951 14.1413 32.6703 15.8638 32.6608C17.5863 32.6513 19.2345 31.9579 20.4458 30.7331C21.6571 29.5084 22.3322 27.8527 22.3227 26.1301V22.5468C22.3227 21.6558 22.6767 20.8014 23.3067 20.1714C23.9367 19.5414 24.7911 19.1874 25.6821 19.1874C26.5731 19.1874 27.4275 19.5414 28.0575 20.1714C28.6876 20.8014 29.0415 21.6558 29.0415 22.5468V24.7147C28.4435 24.926 27.9395 25.342 27.6186 25.889C27.2976 26.436 27.1804 27.0788 27.2876 27.7039C27.3948 28.329 27.7196 28.8961 28.2044 29.3049C28.6893 29.7136 29.3031 29.9379 29.9373 29.9379C30.5715 29.9379 31.1853 29.7136 31.6702 29.3049C32.1551 28.8961 32.4798 28.329 32.587 27.7039C32.6942 27.0788 32.577 26.436 32.2561 25.889C31.9351 25.342 31.4311 24.926 30.8332 24.7147V22.5468C30.8332 21.1807 30.2905 19.8705 29.3244 18.9045C28.3584 17.9385 27.0483 17.3958 25.6821 17.3958C24.316 17.3958 23.0058 17.9385 22.0398 18.9045C21.0738 19.8705 20.5311 21.1807 20.5311 22.5468V26.1301C20.5406 27.3775 20.0542 28.5775 19.1789 29.4662C18.3036 30.355 17.1111 30.8596 15.8638 30.8691C14.6164 30.8786 13.4164 30.3922 12.5277 29.5169C11.6389 28.6416 11.1343 27.4491 11.1248 26.2018C11.6489 26.0164 12.1027 25.673 12.4236 25.2189C12.7444 24.7649 12.9166 24.2226 12.9165 23.6666V21.5014C14.8329 20.9582 16.5397 19.847 17.8119 18.3143C19.0841 16.7816 19.8619 14.8994 20.0428 12.9157C20.0876 12.423 19.6818 12.0208 19.1873 12.0208V3.95826C19.1873 3.24549 18.9042 2.56191 18.4002 2.05791C17.8962 1.5539 17.2126 1.27076 16.4998 1.27076H16.2597C16.0625 0.929211 15.7581 0.662282 15.3937 0.511364C15.0294 0.360447 14.6254 0.333974 14.2444 0.436052C13.8635 0.53813 13.5268 0.763053 13.2867 1.07594C13.0467 1.38883 12.9165 1.7722 12.9165 2.16659C12.9165 2.56098 13.0467 2.94435 13.2867 3.25724C13.5268 3.57012 13.8635 3.79505 14.2444 3.89713C14.6254 3.9992 15.0294 3.97273 15.3937 3.82181C15.7581 3.67089 16.0625 3.40397 16.2597 3.06242H16.4998C16.7374 3.06242 16.9653 3.1568 17.1333 3.32481C17.3013 3.49281 17.3957 3.72067 17.3957 3.95826V12.0208H16.3565C15.862 12.0208 15.4687 12.4239 15.3845 12.9121C15.1748 14.1275 14.5426 15.2297 13.5993 16.0242C12.656 16.8187 11.4623 17.2544 10.229 17.2544C8.99567 17.2544 7.80201 16.8187 6.8587 16.0242C5.9154 15.2297 5.28312 14.1275 5.07346 12.9121C4.98925 12.4248 4.59598 12.0208 4.10148 12.0208ZM17.0194 13.8124H18.0899C17.684 15.5937 16.6851 17.1843 15.2569 18.3236C13.8287 19.4629 12.0559 20.0834 10.229 20.0834C8.40204 20.0834 6.62925 19.4629 5.20107 18.3236C3.77289 17.1843 2.774 15.5937 2.36805 13.8124H3.43857C3.83451 15.3113 4.71529 16.6371 5.94359 17.5831C7.17188 18.5291 8.67865 19.042 10.229 19.042C11.7793 19.042 13.2861 18.5291 14.5144 17.5831C15.7427 16.6371 16.6235 15.3113 17.0194 13.8124ZM29.9373 26.3541C30.1749 26.3541 30.4028 26.4485 30.5708 26.6165C30.7388 26.7845 30.8332 27.0123 30.8332 27.2499C30.8332 27.4875 30.7388 27.7154 30.5708 27.8834C30.4028 28.0514 30.1749 28.1458 29.9373 28.1458C29.6997 28.1458 29.4719 28.0514 29.3039 27.8834C29.1359 27.7154 29.0415 27.4875 29.0415 27.2499C29.0415 27.0123 29.1359 26.7845 29.3039 26.6165C29.4719 26.4485 29.6997 26.3541 29.9373 26.3541ZM11.1248 21.8749V23.6666C11.1248 23.9042 11.0304 24.132 10.8624 24.3C10.6944 24.468 10.4666 24.5624 10.229 24.5624C9.99139 24.5624 9.76353 24.468 9.59553 24.3C9.42753 24.132 9.33315 23.9042 9.33315 23.6666V21.8749H11.1248Z" fill="white"/>
</svg>
