<svg width="19" height="21" viewBox="0 0 19 21" fill="none" xmlns="http://www.w3.org/2000/svg">
<path fill-rule="evenodd" clip-rule="evenodd" d="M2.22831 7.79427H0.602158C0.318095 7.79427 0.0849789 8.04935 0.110709 8.36182C0.214641 9.61983 0.661461 10.8135 1.39226 11.7856C2.12306 12.7576 3.10353 13.4623 4.2044 13.8067V15.1799C4.2044 15.9219 4.6341 16.5536 5.23361 16.7877C5.23907 17.8801 5.63738 18.9253 6.34092 19.6935C7.04446 20.4617 7.9956 20.8899 8.98509 20.8839C9.97458 20.8778 10.9214 20.4381 11.6172 19.6614C12.313 18.8847 12.7009 17.8346 12.6954 16.7422V14.4697C12.6954 13.9047 12.8987 13.3628 13.2606 12.9633C13.6225 12.5637 14.1134 12.3393 14.6252 12.3393C15.137 12.3393 15.6278 12.5637 15.9897 12.9633C16.3516 13.3628 16.5549 13.9047 16.5549 14.4697V15.8446C16.2114 15.9786 15.9219 16.2424 15.7376 16.5893C15.5532 16.9362 15.4859 17.3439 15.5474 17.7403C15.609 18.1367 15.7956 18.4963 16.0741 18.7556C16.3526 19.0148 16.7052 19.157 17.0695 19.157C17.4339 19.157 17.7865 19.0148 18.065 18.7556C18.3435 18.4963 18.5301 18.1367 18.5917 17.7403C18.6532 17.3439 18.5859 16.9362 18.4015 16.5893C18.2172 16.2424 17.9277 15.9786 17.5842 15.8446V14.4697C17.5842 13.6033 17.2724 12.7724 16.7175 12.1598C16.1626 11.5472 15.4099 11.203 14.6252 11.203C13.8404 11.203 13.0878 11.5472 12.5329 12.1598C11.9779 12.7724 11.6662 13.6033 11.6662 14.4697V16.7422C11.6716 17.5333 11.3922 18.2943 10.8894 18.8579C10.3866 19.4216 9.70162 19.7416 8.98509 19.7476C8.26856 19.7536 7.57921 19.4452 7.06868 18.8901C6.55816 18.335 6.26828 17.5787 6.26282 16.7877C6.56391 16.6701 6.82456 16.4523 7.00888 16.1644C7.1932 15.8764 7.29213 15.5325 7.29204 15.1799V13.8067C8.3929 13.4623 9.37337 12.7576 10.1042 11.7856C10.835 10.8135 11.2818 9.61983 11.3857 8.36182C11.4115 8.04935 11.1783 7.79427 10.8943 7.79427V2.68114C10.8943 2.22911 10.7316 1.7956 10.4421 1.47597C10.1526 1.15633 9.75991 0.976767 9.35046 0.976767H9.21255C9.09926 0.760164 8.9244 0.590882 8.71508 0.495172C8.50577 0.399462 8.2737 0.382673 8.05486 0.44741C7.83603 0.512146 7.64265 0.654789 7.50473 0.853218C7.36681 1.05165 7.29205 1.29477 7.29204 1.54489C7.29205 1.79501 7.36681 2.03814 7.50473 2.23657C7.64265 2.43499 7.83603 2.57764 8.05486 2.64237C8.2737 2.70711 8.50577 2.69032 8.71508 2.59461C8.9244 2.4989 9.09926 2.32962 9.21255 2.11302H9.35046C9.48694 2.11302 9.61783 2.17287 9.71434 2.27942C9.81085 2.38596 9.86507 2.53047 9.86507 2.68114V7.79427H9.26812C8.98406 7.79427 8.75815 8.04992 8.70977 8.35955C8.58934 9.13032 8.22613 9.82933 7.68425 10.3332C7.14238 10.8371 6.45669 11.1134 5.74822 11.1134C5.03975 11.1134 4.35406 10.8371 3.81218 10.3332C3.27031 9.82933 2.9071 9.13032 2.78666 8.35955C2.73829 8.05049 2.51238 7.79427 2.22831 7.79427ZM9.64893 8.93051H10.2639C10.0307 10.0602 9.45688 11.0689 8.63647 11.7914C7.81606 12.514 6.7977 12.9075 5.74822 12.9075C4.69874 12.9075 3.68038 12.514 2.85997 11.7914C2.03956 11.0689 1.46575 10.0602 1.23255 8.93051H1.8475C2.07495 9.88111 2.58091 10.7219 3.2865 11.3218C3.99208 11.9217 4.85764 12.2471 5.74822 12.2471C6.6388 12.2471 7.50435 11.9217 8.20994 11.3218C8.91552 10.7219 9.42148 9.88111 9.64893 8.93051V8.93051ZM17.0695 16.8843C17.206 16.8843 17.3369 16.9441 17.4334 17.0507C17.5299 17.1572 17.5842 17.3017 17.5842 17.4524C17.5842 17.6031 17.5299 17.7476 17.4334 17.8541C17.3369 17.9607 17.206 18.0205 17.0695 18.0205C16.9331 18.0205 16.8022 17.9607 16.7057 17.8541C16.6092 17.7476 16.5549 17.6031 16.5549 17.4524C16.5549 17.3017 16.6092 17.1572 16.7057 17.0507C16.8022 16.9441 16.9331 16.8843 17.0695 16.8843ZM6.26282 14.0436V15.1799C6.26282 15.3306 6.20861 15.4751 6.1121 15.5816C6.01559 15.6882 5.8847 15.748 5.74822 15.748C5.61174 15.748 5.48084 15.6882 5.38434 15.5816C5.28783 15.4751 5.23361 15.3306 5.23361 15.1799V14.0436H6.26282Z" fill="#252B42"/>
</svg>
