<svg width="25" height="20" viewBox="0 0 25 20" fill="none" xmlns="http://www.w3.org/2000/svg">
<path d="M8.2599 19.9083C17.4003 19.9083 22.4004 12.2822 22.4004 5.68038C22.4004 5.46698 22.4004 5.25052 22.3913 5.03712C23.3648 4.32753 24.2049 3.44901 24.8724 2.44274C23.9631 2.84645 22.9995 3.11253 22.0129 3.23233C23.0521 2.60681 23.8305 1.62261 24.2033 0.462651C23.2269 1.04513 22.1582 1.45403 21.044 1.67143C20.295 0.868155 19.3037 0.336008 18.2239 0.157419C17.1441 -0.0211701 16.0359 0.163766 15.071 0.683581C14.1062 1.2034 13.3384 2.02908 12.8868 3.03274C12.4351 4.03639 12.3247 5.16201 12.5727 6.23523C10.5968 6.13547 8.6638 5.6186 6.89905 4.71814C5.13429 3.81769 3.57721 2.55377 2.32879 1.00836C1.69502 2.11056 1.5016 3.41433 1.78782 4.65492C2.07404 5.89551 2.81844 6.9799 3.86985 7.6879C3.08197 7.66095 2.31141 7.44791 1.62033 7.06598V7.13458C1.62169 8.28921 2.01892 9.40797 2.7449 10.3017C3.47087 11.1955 4.48105 11.8095 5.60467 12.0398C5.17818 12.1581 4.73761 12.2171 4.29523 12.2151C3.98336 12.2161 3.67212 12.187 3.36575 12.1282C3.68333 13.1222 4.3017 13.9912 5.13425 14.6136C5.96681 15.236 6.97185 15.5806 8.0086 15.5991C6.24737 16.992 4.07179 17.7475 1.83226 17.7438C1.43764 17.7455 1.0433 17.7226 0.651489 17.6752C2.9245 19.1344 5.56425 19.9092 8.2599 19.9083Z" fill="#23A6F0"/>
</svg>
